<mxfile host="app.diagrams.net" modified="2023-04-17T01:03:23.217Z" agent="Mozilla/5.0 (Windows NT 10.0; Win64; x64) AppleWebKit/537.36 (KHTML, like Gecko) Chrome/112.0.0.0 Safari/537.36 Edg/112.0.1722.48" version="21.1.4" etag="cT2zZwbmR6gAielyE_BI" type="github">
  <diagram name="第 1 页" id="ze9DRF1zNd5ga4B99jHg">
    <mxGraphModel>
      <root>
        <mxCell id="0" />
        <mxCell id="1" parent="0" />
      </root>
    </mxGraphModel>
  </diagram>
</mxfile>
